<svg width="52" height="53" viewBox="0 0 52 53" fill="none" xmlns="http://www.w3.org/2000/svg">
<g filter="url(#filter0_d)">
<path d="M26.1554 0.000771469L25.9972 0C25.2415 0 24.4927 0.0393656 23.7564 0.114239C23.4144 0.148974 23.0756 0.193745 22.7398 0.243918C22.7182 0.246234 22.695 0.248549 22.6734 0.252409C13.6299 1.62947 6.38259 8.53482 4.48759 17.4008C4.48373 17.4193 4.47833 17.4371 4.47524 17.4548C4.41426 17.7443 4.36177 18.0368 4.3116 18.3301C4.29925 18.4042 4.28381 18.4776 4.27223 18.5532C4.23287 18.7995 4.20199 19.0488 4.17189 19.2981C4.15645 19.4208 4.13793 19.542 4.1248 19.6655C4.10165 19.8801 4.08698 20.0978 4.07077 20.3139C4.05842 20.4721 4.04375 20.6296 4.03449 20.7879C4.02291 20.9855 4.0206 21.1846 4.01519 21.3822C4.01133 21.5366 4.0013 21.6902 3.99976 21.8453C3.99976 21.87 4.0013 21.8947 4.0013 21.921C4.0013 21.9472 3.99976 21.9743 3.99976 22.0013C3.99976 22.0707 4.0067 22.1379 4.00747 22.2074C4.01056 22.5972 4.02369 22.9847 4.04839 23.3698C4.05688 23.5011 4.0646 23.6323 4.0754 23.7627C4.10937 24.1888 4.15336 24.6134 4.21203 25.0325C4.21666 25.0695 4.21975 25.1074 4.22515 25.1452C4.29153 25.6083 4.37644 26.0653 4.47061 26.5192C4.49222 26.6203 4.51615 26.7199 4.53854 26.8202C4.62345 27.2015 4.71916 27.579 4.82491 27.9533C4.84652 28.0321 4.86659 28.11 4.88898 28.1872C5.02329 28.6419 5.1684 29.0896 5.32973 29.5303C5.33745 29.5512 5.34594 29.5712 5.35288 29.5921C5.50726 30.0104 5.67631 30.4211 5.85461 30.8271C5.88395 30.8942 5.91328 30.9622 5.94416 31.0286C6.33242 31.8877 6.77317 32.7182 7.26486 33.5156C7.2749 33.5318 7.28262 33.548 7.29188 33.5642C7.29111 33.5882 7.29806 33.6129 7.29651 33.6383C7.32353 33.6792 7.35132 33.7186 7.37525 33.7618C7.3984 33.7765 7.4231 33.7888 7.44626 33.8027C8.17724 34.9475 9.01089 36.0212 9.93484 37.0092C9.94102 37.0161 9.94719 37.0223 9.95337 37.0285C10.8719 38.0096 11.88 38.9088 12.9645 39.7093C12.9807 39.7216 12.9962 39.7317 13.0124 39.744C13.3458 39.9879 13.687 40.2233 14.0344 40.4503C14.0745 40.4758 14.1131 40.5012 14.1525 40.5267C14.8966 41.0037 15.6692 41.4406 16.4705 41.8273C16.4859 41.8351 16.5006 41.8412 16.516 41.8482C16.8803 42.0234 17.2501 42.1863 17.6252 42.3414C17.7094 42.3762 17.7943 42.4094 17.8776 42.4433C18.2049 42.5738 18.5368 42.6957 18.871 42.8115C18.9513 42.8401 19.0316 42.8694 19.1134 42.8956C19.9293 43.1658 20.766 43.3881 21.6198 43.561C21.7301 43.5834 21.8405 43.6027 21.9517 43.6228C22.2689 43.6814 22.5877 43.7347 22.9104 43.7802C23.04 43.798 23.1697 43.8173 23.3002 43.8327C23.6444 43.8752 23.991 43.9084 24.3391 43.9346C24.4302 43.9416 24.5205 43.9516 24.6116 43.957C25.02 43.9825 25.4314 43.9994 25.8451 44.0025L26.0033 44.0033C38.0464 44.0033 47.9135 34.2041 47.9992 22.1587C48.0841 10.0253 38.2857 0.0872235 26.1554 0.000771469ZM24.0651 42.4997C23.761 42.4711 23.4592 42.4348 23.1589 42.3931C23.1188 42.3877 23.0794 42.3823 23.04 42.3769C22.739 42.3337 22.4411 42.2828 22.1446 42.2272C22.1076 42.2195 22.0698 42.2133 22.032 42.2063C21.7348 42.1477 21.4399 42.0828 21.1474 42.0111C21.1126 42.0026 21.0771 41.9948 21.0408 41.9864C20.7467 41.913 20.4565 41.8343 20.1671 41.7478C20.1354 41.7378 20.1022 41.7293 20.0706 41.72C19.7803 41.632 19.4932 41.5387 19.2076 41.4383C19.1783 41.4275 19.1482 41.4182 19.1188 41.4074C18.8325 41.3048 18.5492 41.1975 18.2682 41.0832C18.242 41.0717 18.2157 41.0616 18.1887 41.0508C17.9062 40.935 17.6268 40.8115 17.3512 40.6834C17.328 40.6726 17.3033 40.6626 17.2802 40.651C17.0023 40.5205 16.7275 40.3839 16.4573 40.2419C16.4373 40.2311 16.4164 40.221 16.3971 40.211C16.1239 40.0659 15.8553 39.9154 15.5897 39.7594C15.5728 39.7486 15.5542 39.7394 15.5365 39.7278C15.2702 39.5703 15.0077 39.4067 14.7491 39.2369C14.7329 39.2261 14.7175 39.2176 14.7013 39.2068C14.4427 39.0354 14.1864 38.8586 13.9348 38.6757C13.9217 38.6657 13.9085 38.6572 13.8954 38.6471C13.643 38.4634 13.396 38.2735 13.1521 38.079C13.139 38.069 13.1282 38.0597 13.1158 38.0505C12.8727 37.8544 12.6334 37.6529 12.3995 37.4468C12.3871 37.436 12.3763 37.4276 12.3648 37.4167C12.1316 37.2099 11.9024 36.9984 11.6793 36.7815C11.667 36.7699 11.6562 36.7599 11.6438 36.7483C11.4223 36.5322 11.2046 36.3099 10.9916 36.0837C10.9792 36.0713 10.9684 36.0582 10.9553 36.0459C10.7461 35.8205 10.54 35.5904 10.3393 35.3558C10.3324 35.3473 10.3254 35.3396 10.3192 35.3319C13.1845 36.6973 16.2736 37.7008 19.521 38.2789C20.8556 39.8088 22.3832 41.2268 24.1029 42.5027C24.0906 42.502 24.0782 42.5012 24.0651 42.4997ZM8.40958 32.6951C8.00665 32.0351 7.63923 31.3504 7.31195 30.6442C7.29265 30.6032 7.2749 30.5616 7.25637 30.5199C7.11357 30.2088 6.98004 29.8923 6.85267 29.5712C6.82797 29.5087 6.80404 29.4446 6.77857 29.3813C6.65661 29.0633 6.54083 28.7422 6.43508 28.4165C6.42041 28.3709 6.40498 28.3262 6.38954 28.2798C5.8963 26.7391 5.57751 25.1197 5.46172 23.4455C5.46095 23.4385 5.46095 23.4316 5.46018 23.4254C8.04756 25.3088 10.9298 26.8488 14.0313 27.9665C14.8178 31.0409 16.208 33.9448 18.1447 36.5692C14.6712 35.7796 11.4084 34.4766 8.4474 32.7561C8.43505 32.7344 8.4227 32.7151 8.40958 32.6951ZM5.81062 17.9542C5.85848 17.718 5.91174 17.4841 5.96654 17.251C5.98661 17.1684 6.00513 17.0843 6.0252 17.0025C6.07615 16.801 6.13173 16.6011 6.1873 16.4027C6.22049 16.2877 6.25291 16.1727 6.28842 16.0585C6.34014 15.884 6.39571 15.7119 6.45206 15.5398C6.49992 15.397 6.54932 15.2549 6.59949 15.1129C6.65121 14.967 6.70447 14.8219 6.75927 14.6775C6.77703 14.6289 6.79864 14.5818 6.81639 14.534C8.88275 16.0322 11.1498 17.2943 13.5735 18.2792C13.3829 19.5011 13.2741 20.7423 13.2741 22.0013C13.2741 23.4679 13.4161 24.9128 13.6747 26.3293C10.6658 25.1521 7.88547 23.5597 5.41386 21.6277C5.43548 20.3973 5.56747 19.1947 5.79672 18.026C5.80136 18.0021 5.80521 17.9782 5.81062 17.9542ZM7.45244 13.0712C7.65081 12.6614 7.86694 12.26 8.09079 11.8655C8.18033 11.7073 8.27064 11.5498 8.36481 11.3947C8.5848 11.0304 8.8156 10.6737 9.05643 10.3248C9.17376 10.1543 9.29649 9.98675 9.41922 9.8208C9.66159 9.4912 9.91091 9.167 10.1726 8.85361C10.31 8.68843 10.452 8.53019 10.594 8.37041C10.8032 8.13421 11.017 7.90419 11.2363 7.67879C11.3374 7.57459 11.4362 7.46961 11.5388 7.36849C13.0934 8.36809 14.77 9.211 16.5407 9.87483C15.2763 12.0701 14.3694 14.4213 13.8352 16.8697C11.518 15.9033 9.35438 14.6714 7.38682 13.214C7.40998 13.1662 7.42928 13.1175 7.45244 13.0712ZM12.8341 6.19213C13.0996 5.97136 13.369 5.75523 13.6469 5.54682C13.8059 5.42641 13.9695 5.3114 14.1324 5.19561C14.3701 5.02734 14.6094 4.8637 14.8549 4.70469C14.9977 4.61283 15.1405 4.51943 15.2856 4.43067C15.633 4.2184 15.9849 4.01539 16.3454 3.82319C16.4697 3.7568 16.5971 3.69428 16.7221 3.63021C17.0478 3.46503 17.3774 3.30756 17.7124 3.15936C17.7989 3.12076 17.8846 3.07908 17.9718 3.0428C18.3909 2.86449 18.8178 2.7024 19.2501 2.55111C19.3419 2.51869 19.4345 2.48781 19.5279 2.45693C20.4604 2.14741 21.4214 1.89963 22.4079 1.72595C22.4534 1.71823 22.4982 1.70974 22.5445 1.70202C23.0586 1.6148 23.5788 1.54379 24.1045 1.49593C21.3349 3.55225 19.0447 5.97059 17.2956 8.64675C15.6422 8.04853 14.0784 7.28435 12.6203 6.37738C12.692 6.31563 12.7623 6.25311 12.8341 6.19213ZM26.7289 16.3688C29.5185 16.7292 31.6822 19.1144 31.6822 21.9997C31.6822 24.8851 29.5185 27.2702 26.7289 27.6307V16.3688ZM20.252 36.976C18.1154 34.428 16.5615 31.5619 15.6438 28.5052C18.6951 29.4392 21.9362 29.9657 25.2978 30.0313V37.4345C23.5811 37.4005 21.8961 37.2462 20.252 36.976ZM25.2978 38.8393V41.6243C24.0065 40.6942 22.8208 39.6838 21.7471 38.6031C22.9142 38.7382 24.0983 38.817 25.2978 38.8393ZM15.2223 26.8897C14.8696 25.2973 14.6789 23.6639 14.6789 22.0005C14.6789 20.916 14.7615 19.8446 14.9136 18.7886C18.1563 19.9419 21.6514 20.6018 25.2978 20.6775V28.6272C21.7711 28.5554 18.3848 27.9487 15.2223 26.8897ZM15.1582 17.3846C15.6731 14.913 16.6025 12.5479 17.9039 10.3465C20.2388 11.079 22.722 11.5012 25.2978 11.5676V19.2726C21.7317 19.1962 18.3184 18.5347 15.1582 17.3846ZM18.6843 9.11143C20.3909 6.58425 22.6155 4.30485 25.2971 2.37357V10.1504C23.0007 10.0879 20.7807 9.73512 18.6843 9.11143ZM26.7289 29.0487C30.2951 28.6828 33.0862 25.6608 33.0862 21.9997C33.0862 18.3386 30.2951 15.3167 26.7289 14.9508V8.88835C33.6412 9.27044 39.1525 14.994 39.1525 22.0005C39.1525 29.0062 33.6412 34.7298 26.7289 35.1119V29.0487ZM26.7289 42.5768V36.5129C34.4154 36.1292 40.5566 29.7796 40.5566 22.0005C40.5566 14.2198 34.4154 7.86945 26.7289 7.48582V1.42337C37.8133 1.81318 46.6731 10.9848 46.5944 22.1456C46.5164 33.1775 37.6713 42.1917 26.7289 42.5768Z" fill="white"/>
</g>
<defs>
<filter id="filter0_d" x="-0.000244141" y="0" width="52" height="52.0033" filterUnits="userSpaceOnUse" color-interpolation-filters="sRGB">
<feFlood flood-opacity="0" result="BackgroundImageFix"/>
<feColorMatrix in="SourceAlpha" type="matrix" values="0 0 0 0 0 0 0 0 0 0 0 0 0 0 0 0 0 0 127 0"/>
<feOffset dy="4"/>
<feGaussianBlur stdDeviation="2"/>
<feColorMatrix type="matrix" values="0 0 0 0 0 0 0 0 0 0 0 0 0 0 0 0 0 0 0.25 0"/>
<feBlend mode="normal" in2="BackgroundImageFix" result="effect1_dropShadow"/>
<feBlend mode="normal" in="SourceGraphic" in2="effect1_dropShadow" result="shape"/>
</filter>
</defs>
</svg>
